<svg fill="#ffffff" id="Layer_1" height="512" viewBox="0 0 128 128" width="512" xmlns="http://www.w3.org/2000/svg" data-name="Layer 1"><path d="m121.5 13.6h-115a1.75 1.75 0 0 0 -1.75 1.75v97.308a1.75 1.75 0 0 0 1.75 1.742h115a1.75 1.75 0 0 0 1.75-1.75v-97.304a1.75 1.75 0 0 0 -1.75-1.746zm-113.25 3.5h111.5v10.637h-111.5zm0 93.808v-79.671h111.5v79.663z"/><path d="m82.958 19.393a3.024 3.024 0 1 0 3.024 3.024 3.024 3.024 0 0 0 -3.024-3.024z"/><path d="m94.792 19.393a3.024 3.024 0 1 0 3.023 3.024 3.024 3.024 0 0 0 -3.023-3.024z"/><path d="m106.625 19.393a3.024 3.024 0 1 0 3.023 3.024 3.023 3.023 0 0 0 -3.023-3.024z"/><path d="m52.652 69.32h-32.228a1.75 1.75 0 0 0 0 3.5h32.228a1.75 1.75 0 0 0 0-3.5z"/><path d="m20.421 82.294h32.228a1.75 1.75 0 0 0 0-3.5h-32.228a1.75 1.75 0 0 0 0 3.5z"/><path d="m52.652 88.27h-32.231a1.75 1.75 0 0 0 0 3.5h32.231a1.75 1.75 0 0 0 0-3.5z"/><path d="m52.652 50.372h-32.228a1.75 1.75 0 1 0 0 3.5h32.228a1.75 1.75 0 0 0 0-3.5z"/><path d="m20.421 63.346h32.228a1.75 1.75 0 0 0 0-3.5h-32.228a1.75 1.75 0 0 0 0 3.5z"/><path d="m98.632 52.135a12.335 12.335 0 0 0 -15.318 16.117l-3.651 3.648a1.752 1.752 0 0 0 -.508 1.11l-.17 2.3-2.3.17c-.018 0-.034.007-.051.009-.039 0-.076.012-.113.019a1.7 1.7 0 0 0 -.237.055l-.053.019a1.758 1.758 0 0 0 -.268.122l-.019.01a1.776 1.776 0 0 0 -.261.184l-.007.006a1.708 1.708 0 0 0 -.225.233l-.008.01a1.754 1.754 0 0 0 -.177.271l-.006.012a1.728 1.728 0 0 0 -.192.668l-.168 2.302-2.3.169a1.757 1.757 0 0 0 -.232.041c-.03.006-.062.008-.092.016a1.56 1.56 0 0 0 -.166.06c-.048.018-.1.034-.145.057s-.088.05-.132.076a1.636 1.636 0 0 0 -.149.095c-.036.027-.068.057-.1.086a1.851 1.851 0 0 0 -.143.137c-.026.028-.049.058-.073.087a1.868 1.868 0 0 0 -.127.179c-.017.028-.033.056-.049.086a1.792 1.792 0 0 0 -.1.218c-.009.026-.02.052-.028.079a1.723 1.723 0 0 0 -.06.26c0 .021-.008.041-.011.063s-.011.053-.013.08l-.169 2.3-2.3.17a1.749 1.749 0 0 0 -1.62 1.685l-.17 4.889a1.752 1.752 0 0 0 1.739 1.817h.064l4.891-.18a1.749 1.749 0 0 0 1.173-.512l15.912-15.921c.2.073.383.156.584.22a12.352 12.352 0 1 0 7.549-23.522zm-26.032 36.265-2.325.086.05-1.442 2.244-.165a1.749 1.749 0 0 0 1.617-1.617l.169-2.3 2.3-.17a1.753 1.753 0 0 0 1.62-1.619l.17-2.3 2.3-.17a1.749 1.749 0 0 0 1.616-1.617l.233-3.161 2.485-2.485a12.322 12.322 0 0 0 2.238 2.233zm30.686-21.8a8.864 8.864 0 0 1 -11.134 5.724 8.852 8.852 0 1 1 11.134-5.724z"/><path d="m97.3 56.293a7.966 7.966 0 0 0 -8.095 1.96 7.892 7.892 0 0 0 -1.949 3.2 7.986 7.986 0 0 0 13.258 8.082 7.989 7.989 0 0 0 -3.214-13.242zm1.831 8.974a4.421 4.421 0 0 1 -1.092 1.8 4.483 4.483 0 1 1 1.092-1.8z"/></svg>