<svg width="94" height="97" xmlns="http://www.w3.org/2000/svg" enable-background="new 0 0 512 512">

 <g>
  <title>Layer 1</title>
  <g id="svg_1">
   <path id="svg_2" fill="#0a77e8" d="m47.5,72.4375l-7.21154,10.78125l7.21154,10.78125c7.96562,0 14.42308,-4.82695 14.42308,-10.78125s-6.45745,-10.78125 -14.42308,-10.78125z"/>
   <path id="svg_3" fill="#0f9af0" d="m33.07692,83.21875c0,5.9543 6.45745,10.78125 14.42308,10.78125l0,-21.5625c-7.96562,0 -14.42308,4.82695 -14.42308,10.78125z"/>
   <path id="svg_4" fill="#0a77e8" d="m47.5,2l-14.42308,10.78125l14.42308,10.78125c4.77187,0 8.65385,2.90177 8.65385,6.46875c0,1.90073 -1.11611,3.69977 -3.0625,4.9362l-5.59135,3.55332l-9.61538,14.26305l9.61538,14.26305l14.42308,0l0,-9.39011l9.85,-6.25977c8.40577,-5.33923 13.22692,-13.12653 13.22692,-21.36574c0,-15.45654 -16.82235,-28.03125 -37.5,-28.03125z"/>
   <g id="svg_5" fill="#0f9af0">
    <path id="svg_6" d="m33.07692,47.68699l0,19.35989l14.42308,0l0,-28.52611l-14.42308,9.16622z"/>
    <path id="svg_7" d="m10,30.03125l0,2.69531l28.84615,0l0,-2.69531c0,-3.56698 3.88197,-6.46875 8.65385,-6.46875l0,-21.5625c-20.67764,0 -37.5,12.57471 -37.5,28.03125z"/>
   </g>
  </g>
 </g>
</svg>