<svg width="89.431" height="83.431" xmlns="http://www.w3.org/2000/svg" xml:space="preserve" version="1.1">

 <g>
  <title>Layer 1</title>
  <g id="svg_19">
   <path id="svg_1" fill="#5CA4DA" d="m74.74457,72.50998c-11.77165,9.2265 -48.52795,9.2265 -60.05939,0c-11.77165,-9.2265 -10.57048,-48.6697 0,-59.04949s49.48892,-10.37979 60.05939,0s11.77165,49.82315 0,59.04949z"/>
   <path id="svg_2" fill="#6DAFE0" d="m45.04041,56.35377c-10.59377,8.0203 -22.39135,12.145 -33.46658,12.37412c-8.18614,-13.29074 -6.5007,-45.60088 3.12999,-54.99602c8.6676,-8.47853 35.87421,-10.08265 51.52413,-4.81221c3.85217,15.12397 -4.09307,34.37249 -21.18754,47.43411z"/>
   <path id="svg_3" fill="#FFFFFF" d="m50.0964,51.99995l-10.35304,0l0,-4.81221c0,-1.83324 0.24073,-3.20809 0.72236,-3.89559c0.48146,-0.91662 1.44454,-2.06235 3.12999,-3.66648l4.57453,-4.58293c0.72236,-0.6875 0.96309,-1.83324 0.96309,-2.97897c0,-1.14573 -0.24073,-2.29147 -1.20381,-2.97897c-0.72236,-0.91662 -1.68544,-1.14573 -2.88926,-1.14573c-1.20381,0 -2.1669,0.45823 -2.88926,1.37485c-0.72236,0.91662 -1.20381,2.29147 -1.44454,3.89559l-10.8345,0c0.48146,-4.35382 2.1669,-7.79118 5.05616,-10.08265s6.25997,-3.66648 10.59377,-3.66648s7.70451,1.14573 10.35304,3.20809c2.64836,2.29147 4.09307,5.27044 4.09307,9.16603c0,1.83324 -0.24073,2.97897 -0.72236,3.89559c-0.48146,0.91662 -0.72236,1.37485 -0.96309,1.83324c-0.24073,0.45823 -0.72236,0.91662 -1.20381,1.60412c-0.72236,0.6875 -1.20381,1.14573 -1.44454,1.37485c-1.20381,1.14573 -2.1669,2.06235 -3.12999,2.97897c-0.96309,0.91662 -1.68544,1.60412 -1.92617,2.29147c-0.24073,0.6875 -0.48146,1.37485 -0.48146,2.52058l0,3.66664l-0.00017,0zm-11.07523,8.24941c0,-3.20809 2.64836,-5.72883 6.01924,-5.72883s6.01924,2.52058 6.01924,5.72883s-2.64836,5.72883 -6.01924,5.72883s-6.01924,-2.52074 -6.01924,-5.72883z"/>
   <g id="svg_4"/>
   <g id="svg_5"/>
   <g id="svg_6"/>
   <g id="svg_7"/>
   <g id="svg_8"/>
   <g id="svg_9"/>
   <g id="svg_10"/>
   <g id="svg_11"/>
   <g id="svg_12"/>
   <g id="svg_13"/>
   <g id="svg_14"/>
   <g id="svg_15"/>
   <g id="svg_16"/>
   <g id="svg_17"/>
   <g id="svg_18"/>
  </g>
 </g>
</svg>